<svg width="120" height="60" viewBox="0 0 120 60" fill="none" xmlns="http://www.w3.org/2000/svg">
<path d="M110.18 60H96.6084L97.8346 57.6779V1.42027L97.0846 0H109.531C107.741 2.96917 107.287 8.17168 107.287 10.5431V28.7888H117.748L120 26.0846V33.0135L117.748 30.3093H107.287V48.555C107.287 51.1905 107.848 57.3228 110.18 60Z" fill="#29180A"/>
<path d="M83.3569 60H77.6082C82.0714 56.396 84.5865 45.3739 84.5865 28.6938C84.5865 14.2052 82.4602 4.18453 78.6484 0L84.7322 0C90.7252 5.01497 94.0391 14.9373 94.0391 28.6938C94.0391 44.2937 90.2162 55.1723 83.3569 60Z" fill="#29180A"/>
<path d="M60.8981 0H71.1007L71.1007 60H60.4219L61.6481 57.6779V1.42027L60.8981 0Z" fill="#29180A"/>
<path d="M32.2499 0H33.2572L27.4438 35.3459H39.4171L33.48 0H43.252L52.9029 57.6779L54.5267 59.9978H42.309L43.1351 57.6779L39.6692 36.8664H27.1917L23.7257 57.6779L24.5804 59.9978H21.1221L22.7175 57.6779L32.2499 0Z" fill="#29180A"/>
<path d="M0 51.4993V34.6506C3.09137 36.7836 4.94228 42.6706 1.77052 48.0799C1.04441 49.2683 0.455167 50.4117 0 51.4993Z" fill="#29180A"/>
<path d="M11.4184 0H22.371L21.621 1.42026V42.093C21.621 50.1253 19.7505 56.236 16.3148 60H10.6426C12.6381 56.2133 12.2115 48.76 12.1684 39.5271V1.42026L11.4184 0Z" fill="#29180A"/>
</svg>
